<mxfile host="app.diagrams.net" modified="2024-05-22T03:03:42.012Z" agent="Mozilla/5.0 (Windows NT 10.0; Win64; x64) AppleWebKit/537.36 (KHTML, like Gecko) Chrome/124.0.0.0 Safari/537.36" etag="8hJKS-hJbhU0Hp7cLMO1" version="24.4.4" type="device">
  <diagram name="Page-1" id="9rm0cDkCGXrtx-DYHCuu">
    <mxGraphModel dx="1615" dy="815" grid="1" gridSize="10" guides="1" tooltips="1" connect="1" arrows="1" fold="1" page="1" pageScale="1" pageWidth="1100" pageHeight="850" math="0" shadow="0">
      <root>
        <mxCell id="0" />
        <mxCell id="1" parent="0" />
        <mxCell id="yXOSNcQHVqe0X_PXcPzG-11" style="edgeStyle=orthogonalEdgeStyle;rounded=0;orthogonalLoop=1;jettySize=auto;html=1;entryX=0;entryY=0.5;entryDx=0;entryDy=0;" parent="1" source="yXOSNcQHVqe0X_PXcPzG-1" target="Qw0AmBKE8VYrzu-6A_hk-3" edge="1">
          <mxGeometry relative="1" as="geometry" />
        </mxCell>
        <mxCell id="yXOSNcQHVqe0X_PXcPzG-1" value="Hand value" style="rounded=0;whiteSpace=wrap;html=1;" parent="1" vertex="1">
          <mxGeometry x="40" y="160" width="120" height="60" as="geometry" />
        </mxCell>
        <mxCell id="yXOSNcQHVqe0X_PXcPzG-13" style="edgeStyle=orthogonalEdgeStyle;rounded=0;orthogonalLoop=1;jettySize=auto;html=1;entryX=1;entryY=0;entryDx=0;entryDy=0;exitX=0;exitY=0.5;exitDx=0;exitDy=0;" parent="1" source="yXOSNcQHVqe0X_PXcPzG-2" target="Qw0AmBKE8VYrzu-6A_hk-6" edge="1">
          <mxGeometry relative="1" as="geometry" />
        </mxCell>
        <mxCell id="yXOSNcQHVqe0X_PXcPzG-18" style="edgeStyle=orthogonalEdgeStyle;rounded=0;orthogonalLoop=1;jettySize=auto;html=1;exitX=1;exitY=0.5;exitDx=0;exitDy=0;entryX=0.5;entryY=0;entryDx=0;entryDy=0;" parent="1" source="yXOSNcQHVqe0X_PXcPzG-2" target="yXOSNcQHVqe0X_PXcPzG-15" edge="1">
          <mxGeometry relative="1" as="geometry" />
        </mxCell>
        <mxCell id="yXOSNcQHVqe0X_PXcPzG-2" value="Riskiness" style="rounded=0;whiteSpace=wrap;html=1;" parent="1" vertex="1">
          <mxGeometry x="690" y="35" width="120" height="60" as="geometry" />
        </mxCell>
        <mxCell id="yXOSNcQHVqe0X_PXcPzG-12" style="edgeStyle=orthogonalEdgeStyle;rounded=0;orthogonalLoop=1;jettySize=auto;html=1;entryX=0.5;entryY=1;entryDx=0;entryDy=0;" parent="1" source="yXOSNcQHVqe0X_PXcPzG-3" target="Qw0AmBKE8VYrzu-6A_hk-3" edge="1">
          <mxGeometry relative="1" as="geometry" />
        </mxCell>
        <mxCell id="yXOSNcQHVqe0X_PXcPzG-3" value="Perceived Player Hand value" style="rounded=0;whiteSpace=wrap;html=1;" parent="1" vertex="1">
          <mxGeometry x="380" y="400" width="120" height="60" as="geometry" />
        </mxCell>
        <mxCell id="yXOSNcQHVqe0X_PXcPzG-6" style="edgeStyle=orthogonalEdgeStyle;rounded=0;orthogonalLoop=1;jettySize=auto;html=1;entryX=0;entryY=0;entryDx=0;entryDy=0;" parent="1" source="yXOSNcQHVqe0X_PXcPzG-4" target="Qw0AmBKE8VYrzu-6A_hk-1" edge="1">
          <mxGeometry relative="1" as="geometry" />
        </mxCell>
        <mxCell id="yXOSNcQHVqe0X_PXcPzG-4" value="Player bluff rate" style="rounded=0;whiteSpace=wrap;html=1;" parent="1" vertex="1">
          <mxGeometry x="40" y="280" width="120" height="60" as="geometry" />
        </mxCell>
        <mxCell id="yXOSNcQHVqe0X_PXcPzG-7" style="edgeStyle=orthogonalEdgeStyle;rounded=0;orthogonalLoop=1;jettySize=auto;html=1;entryX=0;entryY=0.5;entryDx=0;entryDy=0;" parent="1" source="yXOSNcQHVqe0X_PXcPzG-5" target="Qw0AmBKE8VYrzu-6A_hk-1" edge="1">
          <mxGeometry relative="1" as="geometry" />
        </mxCell>
        <mxCell id="yXOSNcQHVqe0X_PXcPzG-5" value="Player Confidence" style="rounded=0;whiteSpace=wrap;html=1;" parent="1" vertex="1">
          <mxGeometry x="40" y="400" width="120" height="60" as="geometry" />
        </mxCell>
        <mxCell id="yXOSNcQHVqe0X_PXcPzG-17" style="edgeStyle=orthogonalEdgeStyle;rounded=0;orthogonalLoop=1;jettySize=auto;html=1;exitX=1;exitY=0.5;exitDx=0;exitDy=0;entryX=0;entryY=0.5;entryDx=0;entryDy=0;" parent="1" source="yXOSNcQHVqe0X_PXcPzG-8" target="yXOSNcQHVqe0X_PXcPzG-15" edge="1">
          <mxGeometry relative="1" as="geometry" />
        </mxCell>
        <mxCell id="yXOSNcQHVqe0X_PXcPzG-8" value="call raise fold" style="rounded=0;whiteSpace=wrap;html=1;" parent="1" vertex="1">
          <mxGeometry x="690" y="115" width="120" height="60" as="geometry" />
        </mxCell>
        <mxCell id="yXOSNcQHVqe0X_PXcPzG-16" style="edgeStyle=orthogonalEdgeStyle;rounded=0;orthogonalLoop=1;jettySize=auto;html=1;exitX=1;exitY=0.5;exitDx=0;exitDy=0;entryX=0.5;entryY=1;entryDx=0;entryDy=0;" parent="1" source="yXOSNcQHVqe0X_PXcPzG-9" target="yXOSNcQHVqe0X_PXcPzG-15" edge="1">
          <mxGeometry relative="1" as="geometry" />
        </mxCell>
        <mxCell id="yXOSNcQHVqe0X_PXcPzG-9" value="player skiddishness" style="rounded=0;whiteSpace=wrap;html=1;" parent="1" vertex="1">
          <mxGeometry x="690" y="285" width="120" height="60" as="geometry" />
        </mxCell>
        <mxCell id="yXOSNcQHVqe0X_PXcPzG-14" style="edgeStyle=orthogonalEdgeStyle;rounded=0;orthogonalLoop=1;jettySize=auto;html=1;entryX=0.5;entryY=1;entryDx=0;entryDy=0;" parent="1" source="yXOSNcQHVqe0X_PXcPzG-10" target="Qw0AmBKE8VYrzu-6A_hk-6" edge="1">
          <mxGeometry relative="1" as="geometry" />
        </mxCell>
        <mxCell id="yXOSNcQHVqe0X_PXcPzG-10" value="odds" style="rounded=0;whiteSpace=wrap;html=1;" parent="1" vertex="1">
          <mxGeometry x="420" y="215" width="120" height="60" as="geometry" />
        </mxCell>
        <mxCell id="yXOSNcQHVqe0X_PXcPzG-15" value="raise amount" style="rounded=0;whiteSpace=wrap;html=1;" parent="1" vertex="1">
          <mxGeometry x="880" y="185" width="120" height="60" as="geometry" />
        </mxCell>
        <mxCell id="yXOSNcQHVqe0X_PXcPzG-20" style="edgeStyle=orthogonalEdgeStyle;rounded=0;orthogonalLoop=1;jettySize=auto;html=1;entryX=0.5;entryY=1;entryDx=0;entryDy=0;" parent="1" source="yXOSNcQHVqe0X_PXcPzG-19" target="Qw0AmBKE8VYrzu-6A_hk-1" edge="1">
          <mxGeometry relative="1" as="geometry" />
        </mxCell>
        <mxCell id="yXOSNcQHVqe0X_PXcPzG-19" value="statistical hand" style="rounded=0;whiteSpace=wrap;html=1;" parent="1" vertex="1">
          <mxGeometry x="40" y="520" width="120" height="60" as="geometry" />
        </mxCell>
        <mxCell id="yXOSNcQHVqe0X_PXcPzG-22" style="edgeStyle=orthogonalEdgeStyle;rounded=0;orthogonalLoop=1;jettySize=auto;html=1;exitX=1;exitY=0.5;exitDx=0;exitDy=0;entryX=1;entryY=1;entryDx=0;entryDy=0;" parent="1" source="yXOSNcQHVqe0X_PXcPzG-21" target="Qw0AmBKE8VYrzu-6A_hk-1" edge="1">
          <mxGeometry relative="1" as="geometry" />
        </mxCell>
        <mxCell id="yXOSNcQHVqe0X_PXcPzG-21" value="standard hand" style="rounded=0;whiteSpace=wrap;html=1;" parent="1" vertex="1">
          <mxGeometry x="40" y="640" width="120" height="60" as="geometry" />
        </mxCell>
        <mxCell id="yXOSNcQHVqe0X_PXcPzG-24" style="edgeStyle=orthogonalEdgeStyle;rounded=0;orthogonalLoop=1;jettySize=auto;html=1;exitX=1;exitY=0.5;exitDx=0;exitDy=0;entryX=0;entryY=0;entryDx=0;entryDy=0;" parent="1" source="yXOSNcQHVqe0X_PXcPzG-23" target="Qw0AmBKE8VYrzu-6A_hk-6" edge="1">
          <mxGeometry relative="1" as="geometry" />
        </mxCell>
        <mxCell id="yXOSNcQHVqe0X_PXcPzG-23" value="bluff" style="rounded=0;whiteSpace=wrap;html=1;" parent="1" vertex="1">
          <mxGeometry x="40" y="35" width="120" height="60" as="geometry" />
        </mxCell>
        <mxCell id="Qw0AmBKE8VYrzu-6A_hk-2" style="edgeStyle=orthogonalEdgeStyle;rounded=0;orthogonalLoop=1;jettySize=auto;html=1;exitX=1;exitY=0.5;exitDx=0;exitDy=0;entryX=0;entryY=0.5;entryDx=0;entryDy=0;" edge="1" parent="1" source="Qw0AmBKE8VYrzu-6A_hk-1" target="yXOSNcQHVqe0X_PXcPzG-3">
          <mxGeometry relative="1" as="geometry" />
        </mxCell>
        <mxCell id="Qw0AmBKE8VYrzu-6A_hk-1" value="statistical hand + bluff rate * confidence" style="rhombus;whiteSpace=wrap;html=1;" vertex="1" parent="1">
          <mxGeometry x="230" y="375" width="110" height="110" as="geometry" />
        </mxCell>
        <mxCell id="Qw0AmBKE8VYrzu-6A_hk-4" style="edgeStyle=orthogonalEdgeStyle;rounded=0;orthogonalLoop=1;jettySize=auto;html=1;exitX=1;exitY=0.5;exitDx=0;exitDy=0;entryX=0;entryY=0.5;entryDx=0;entryDy=0;" edge="1" parent="1" source="Qw0AmBKE8VYrzu-6A_hk-3" target="yXOSNcQHVqe0X_PXcPzG-10">
          <mxGeometry relative="1" as="geometry" />
        </mxCell>
        <mxCell id="Qw0AmBKE8VYrzu-6A_hk-3" value="hand value / player hand value" style="rhombus;whiteSpace=wrap;html=1;" vertex="1" parent="1">
          <mxGeometry x="260" y="185" width="120" height="120" as="geometry" />
        </mxCell>
        <mxCell id="Qw0AmBKE8VYrzu-6A_hk-7" style="edgeStyle=orthogonalEdgeStyle;rounded=0;orthogonalLoop=1;jettySize=auto;html=1;exitX=1;exitY=0.5;exitDx=0;exitDy=0;entryX=0;entryY=0.5;entryDx=0;entryDy=0;" edge="1" parent="1" source="Qw0AmBKE8VYrzu-6A_hk-6" target="yXOSNcQHVqe0X_PXcPzG-8">
          <mxGeometry relative="1" as="geometry" />
        </mxCell>
        <mxCell id="Qw0AmBKE8VYrzu-6A_hk-6" value="odds * risk &amp;lt; risk thresh&lt;div&gt;|| bluff &amp;lt; risk thresh&lt;/div&gt;" style="rhombus;whiteSpace=wrap;html=1;" vertex="1" parent="1">
          <mxGeometry x="410" y="30" width="140" height="145" as="geometry" />
        </mxCell>
      </root>
    </mxGraphModel>
  </diagram>
</mxfile>
